{"title":"Constantine 2005 720p BRRip + Extras Multi-Subs x264-TheRival","uid":15762194,"size":2271573697,"categoryP":"video","categoryS":"hd___movies","magnet":"?xt=urn:btih:3bd68b24e65099f8374c1703a9da571b30a1fd52&amp;dn=Constantine+2005+720p+BRRip+%2B+Extras+Multi-Subs+x264-TheRival+&amp;tr=udp%3A%2F%2Ftracker.leechers-paradise.org%3A6969&amp;tr=udp%3A%2F%2Fzer0day.ch%3A1337&amp;tr=udp%3A%2F%2Fopen.demonii.com%3A1337&amp;tr=udp%3A%2F%2Ftracker.coppersurfer.tk%3A6969&amp;tr=udp%3A%2F%2Fexodus.desync.com%3A6969","seeders":1,"leechers":0,"uploader":"TheRival","files":18,"time":1473121575,"description":"Screenshots: \nhttp://extraimago.com/image/wRqo \nhttp://extraimago.com/image/wRqt \nhttp://extraimago.com/image/wRqx \nhttp://extraimago.com/image/wRq6\r\n\r\nSubtitles:\r\nEnglish, Chinese, Korean, Portuguese, Arabic, Indonesian, Bulgarian, Croatian, Czech, Estonian, Hebrew, Hungarian, Icelandic, Latvian, Lithuanian, Polish, Romanian, Russian, Serbian, Slovenian, Thai, Turkish\r\n\r\nVideo\r\nID : 1\r\nFormat : AVC\r\nFormat/Info : Advanced Video Codec\r\nFormat profile :   \r\nFormat settings, CABAC : Yes\r\nFormat settings, ReFrames : 6 frames\r\nCodec ID : avc1\r\nCodec ID/Info : Advanced Video Coding\r\nDuration : 2 h 0 min\r\nBit rate : 900 kb/s\r\nWidth : 1 280 pixels\r\nHeight : 528 pixels\r\nDisplay aspect ratio : 2.40:1\r\nFrame rate mode : Variable\r\nFrame rate : 23.976 (24000/1001) FPS\r\nMinimum frame rate : 23.974 FPS\r\nMaximum frame rate : 23.981 FPS\r\nColor space : YUV\r\nChroma subsampling : 4:2:0\r\nBit depth : 8 bits\r\nScan type : Progressive\r\nBits/(Pixel*Frame) : 0.056\r\nStream size : 777 MiB (87%)\r\nWriting library : x264 core 120\r\nEncoding settings : cabac=1 / ref=6 / deblock=1:0:0 / analyse=0x3:0x113 / me=umh / subme=9 / psy=1 / psy_rd=1.00:0.00 / mixed_ref=1 / me_range=32 / chroma_me=1 / trellis=0 / 8x8dct=1 / cqm=0 / deadzone=21,11 / fast_pskip=1 / chroma_qp_offset=-2 / threads=6 / sliced_threads=0 / nr=0 / decimate=1 / interlaced=0 / bluray_compat=0 / constrained_intra=0 / bframes=5 / b_pyramid=2 / b_adapt=2 / b_bias=0 / direct=1 / weightb=1 / open_gop=0 / weightp=1 / keyint=240 / keyint_min=24 / scenecut=40 / intra_refresh=0 / rc_lookahead=10 / rc=2pass / mbtree=1 / bitrate=900 / ratetol=1.0 / qcomp=0.60 / qpmin=3 / qpmax=69 / qpstep=4 / cplxblur=20.0 / qblur=0.5 / ip_ratio=1.40 / aq=1:1.00\r\n\r\nAudio\r\nID : 2\r\nFormat : AAC\r\nFormat/Info : Advanced Audio Codec\r\nFormat profile : LC\r\nCodec ID : 40\r\nDuration : 2 h 0 min\r\nBit rate mode : Variable\r\nBit rate : 128 kb/s\r\nMaximum bit rate : 259 kb/s\r\nChannel(s) : 2 channels\r\nChannel positions : Front: L R\r\nSampling rate : 48.0 kHz\r\nFrame rate : 46.875 FPS (1024 spf)\r\nCompression mode : Lossy\r\nStream size : 110 MiB (12%)\r\nTitle : Stereo\r\nLanguage : English","torrent":{"xt":"urn:btih:3bd68b24e65099f8374c1703a9da571b30a1fd52","amp;dn":"Constantine+2005+720p+BRRip+%2B+Extras+Multi-Subs+x264-TheRival+","amp;tr":["udp%3A%2F%2Ftracker.leechers-paradise.org%3A6969","udp%3A%2F%2Fzer0day.ch%3A1337","udp%3A%2F%2Fopen.demonii.com%3A1337","udp%3A%2F%2Ftracker.coppersurfer.tk%3A6969","udp%3A%2F%2Fexodus.desync.com%3A6969"],"infoHash":"3bd68b24e65099f8374c1703a9da571b30a1fd52","infoHashBuffer":{"type":"Buffer","data":[59,214,139,36,230,80,153,248,55,76,23,3,169,218,87,27,48,161,253,82]},"announce":[],"urlList":[]}}